<?xml version="1.0" encoding="utf-8"?>
<!-- Generator: Adobe Illustrator 23.0.3, SVG Export Plug-In . SVG Version: 6.00 Build 0)  -->
<svg version="1.1" id="Layer_1" xmlns="http://www.w3.org/2000/svg" xmlns:xlink="http://www.w3.org/1999/xlink" x="0px" y="0px"
	 viewBox="0 0 583 113.6" style="enable-background:new 0 0 583 113.6;" xml:space="preserve">
<style type="text/css">
	.st0{fill:#737370;}
	.st1{fill:#F0801A;}
	.st2{fill:#294270;}
</style>
<g>
	<path class="st0" d="M37.7,27.5h-8.5v64.6h8.5V98H22.4V21.6h15.3V27.5z"/>
	<path class="st1" d="M257.7,27.5h-8.5v64.6h8.5V98h-15.3V21.6h15.3V27.5z"/>
	<path class="st0" d="M83.3,85.9h-7.1V38.8l-14.7,5.6v-6.5l21.3-8.2h0.6L83.3,85.9L83.3,85.9z"/>
	<path class="st0" d="M125.7,84.2c0,1.2-0.1,2.5-0.4,3.8s-0.7,2.6-1.3,3.9c-0.6,1.3-1.3,2.5-2.1,3.7c-0.8,1.2-1.8,2.2-2.9,3.2
		l-4.4-2.4c1.2-1.8,2.1-3.7,2.6-5.8c0.5-2,0.8-4.1,0.8-6.3v-6.9h7.8L125.7,84.2L125.7,84.2z"/>
	<path class="st0" d="M189.5,85.9h-36.8v-5.1l18.4-20.5c1.6-1.8,3-3.4,4.1-4.9c1.1-1.4,2-2.7,2.7-3.9s1.1-2.3,1.4-3.4
		s0.4-2.2,0.4-3.3c0-1.4-0.2-2.7-0.7-3.9s-1.1-2.3-2-3.2s-1.9-1.6-3.1-2.1c-1.2-0.5-2.6-0.8-4.2-0.8c-1.9,0-3.5,0.3-4.9,0.8
		s-2.5,1.3-3.4,2.3s-1.6,2.2-2,3.6c-0.5,1.4-0.7,3-0.7,4.8h-7.2c0-2.4,0.4-4.6,1.2-6.7c0.8-2.1,2-3.9,3.6-5.5s3.5-2.8,5.7-3.7
		c2.3-0.9,4.8-1.4,7.7-1.4c2.7,0,5,0.4,7.2,1.2c2.1,0.8,3.9,1.9,5.4,3.3s2.6,3,3.4,4.9c0.8,1.9,1.2,4,1.2,6.2c0,1.7-0.3,3.3-0.8,5
		c-0.6,1.6-1.3,3.3-2.3,4.8c-1,1.6-2.1,3.2-3.4,4.7s-2.6,3.1-4,4.7l-15.1,16.4h28.2L189.5,85.9L189.5,85.9z"/>
	<path class="st0" d="M220.6,84.2c0,1.2-0.1,2.5-0.4,3.8c-0.3,1.3-0.7,2.6-1.3,3.9s-1.3,2.5-2.1,3.7s-1.8,2.2-2.9,3.2l-4.4-2.4
		c1.2-1.8,2.1-3.7,2.6-5.8c0.5-2,0.8-4.1,0.8-6.3v-6.9h7.8v6.8H220.6z"/>
	<path class="st2" d="M298.3,54.3h5.1c1.8,0,3.4-0.2,4.8-0.7s2.5-1.2,3.5-2c0.9-0.8,1.7-1.9,2.1-3.1c0.5-1.2,0.7-2.5,0.7-3.9
		c0-3.3-0.8-5.7-2.5-7.4s-4.1-2.5-7.3-2.5c-1.5,0-2.9,0.2-4.2,0.7c-1.2,0.5-2.3,1.1-3.2,2s-1.6,1.9-2.1,3.1c-0.5,1.2-0.7,2.5-0.7,4
		h-7.2c0-2.1,0.4-4.2,1.3-6c0.8-1.9,2-3.5,3.5-4.9s3.3-2.5,5.5-3.3c2.1-0.8,4.5-1.2,7.1-1.2c2.5,0,4.8,0.3,6.9,1s3.9,1.7,5.4,3
		s2.7,3,3.5,5s1.2,4.3,1.2,6.9c0,1.1-0.2,2.2-0.5,3.4s-0.8,2.3-1.5,3.4c-0.7,1.1-1.6,2.1-2.7,3.1s-2.4,1.8-3.9,2.4
		c1.8,0.6,3.4,1.4,4.6,2.3c1.2,1,2.2,2,2.9,3.2c0.7,1.2,1.2,2.4,1.5,3.7s0.4,2.6,0.4,3.9c0,2.6-0.5,5-1.4,7s-2.1,3.8-3.7,5.2
		c-1.6,1.4-3.5,2.5-5.7,3.2s-4.5,1.1-7,1.1s-4.8-0.3-7-1s-4.1-1.7-5.7-3.1c-1.6-1.3-2.9-3-3.8-4.9c-0.9-1.9-1.4-4.1-1.4-6.6h7.1
		c0,1.5,0.3,2.8,0.8,4s1.2,2.2,2.1,3.1c0.9,0.8,2.1,1.5,3.4,2s2.8,0.7,4.4,0.7s3.1-0.2,4.4-0.6s2.4-1.1,3.4-2c0.9-0.9,1.6-2,2.1-3.3
		s0.8-2.8,0.8-4.6c0-1.8-0.3-3.3-0.9-4.5c-0.6-1.3-1.4-2.3-2.4-3.2c-1-0.8-2.3-1.5-3.8-1.9s-3.1-0.6-4.9-0.6h-5.1v-6.1H298.3z"/>
	<path class="st2" d="M355.5,84.2c0,1.2-0.1,2.5-0.4,3.8s-0.7,2.6-1.3,3.9c-0.6,1.3-1.3,2.5-2.1,3.7c-0.8,1.2-1.8,2.2-2.9,3.2
		l-4.4-2.4c1.2-1.8,2.1-3.7,2.6-5.8c0.5-2,0.8-4.1,0.8-6.3v-6.9h7.8v6.8H355.5z"/>
	<path class="st2" d="M413.8,67h7.8v5.8h-7.8v13.1h-7.1V72.8H381v-4.2l25.2-39h7.6L413.8,67L413.8,67z M389,67h17.7V39.2l-1.2,2.2
		L389,67z"/>
	<path class="st2" d="M450.4,84.2c0,1.2-0.1,2.5-0.4,3.8s-0.7,2.6-1.3,3.9c-0.6,1.3-1.3,2.5-2.1,3.7c-0.8,1.2-1.8,2.2-2.9,3.2
		l-4.4-2.4c1.2-1.8,2.1-3.7,2.6-5.8c0.5-2,0.8-4.1,0.8-6.3v-6.9h7.8v6.8H450.4z"/>
	<path class="st2" d="M482.3,57.7l2.8-28H514v7h-22.8l-1.6,15c1.1-0.6,2.4-1.2,4-1.7c1.5-0.5,3.3-0.7,5.4-0.7c2.6,0,4.9,0.5,7,1.4
		s3.8,2.2,5.3,3.8c1.4,1.6,2.5,3.6,3.3,5.9c0.8,2.3,1.2,4.9,1.2,7.7c0,2.7-0.4,5.2-1.1,7.5c-0.7,2.3-1.8,4.3-3.3,5.9
		c-1.5,1.7-3.3,3-5.5,3.9s-4.8,1.4-7.8,1.4c-2.3,0-4.5-0.3-6.5-1c-2-0.6-3.8-1.6-5.4-2.9s-2.9-2.9-3.9-4.9s-1.7-4.2-1.9-6.8h6.8
		c0.4,3.2,1.6,5.6,3.5,7.3c1.9,1.6,4.4,2.5,7.4,2.5c1.7,0,3.2-0.3,4.5-0.9s2.4-1.5,3.3-2.6s1.6-2.5,2-4c0.4-1.6,0.7-3.3,0.7-5.3
		c0-1.8-0.3-3.4-0.8-4.9s-1.2-2.8-2.2-4c-1-1.1-2.1-2-3.5-2.6s-3-1-4.8-1c-1.2,0-2.2,0.1-3.1,0.3s-1.6,0.4-2.3,0.7
		c-0.7,0.3-1.3,0.7-2,1.1c-0.6,0.4-1.2,0.9-1.9,1.5L482.3,57.7z"/>
	<path class="st2" d="M536.2,21.6h15.3v76.3h-15.3V92h8.6V27.5h-8.6V21.6z"/>
</g>
<g>
	<path class="st1" d="M339.6,102.3h-72.7V13.5h72.7V102.3z M271.9,97.3h62.7V18.5h-62.7L271.9,97.3L271.9,97.3z"/>
</g>
</svg>
